<svg xmlns="http://www.w3.org/2000/svg" version="1.1" viewBox="3 1043 2470 422">
<path d="M0 0 C1.59788884 1.36961901 3.17525135 2.75768445 4.74169922 4.16308594 C6.48083137 5.72070077 8.26570108 7.23011304 10.10888672 8.66308594 C33.4160897 27.87731669 45.25220481 63.18509534 48.31274414 92.13256836 C50.41954022 118.78496397 46.56467375 143.33929687 35.51123047 167.64355469 C35.08326172 168.60519531 34.65529297 169.56683594 34.21435547 170.55761719 C22.03580991 196.4883406 -0.82995871 218.60533327 -27.75048828 228.68652344 C-41.99144734 233.70458603 -55.15055614 236.02231985 -70.30126953 235.95605469 C-71.29247803 235.95332047 -71.29247803 235.95332047 -72.30371094 235.95053101 C-82.06032655 235.90521388 -91.11025403 235.52210895 -100.48876953 232.64355469 C-101.63345703 232.30324219 -102.77814453 231.96292969 -103.95751953 231.61230469 C-122.11503521 225.66692345 -140.68861477 214.84378682 -151.48876953 198.64355469 C-151.49300147 199.26108077 -151.49723341 199.87860685 -151.50159359 200.51484585 C-151.60476397 215.51991345 -151.71338101 230.52493079 -151.82810879 245.5299139 C-151.88345734 252.78612066 -151.93694196 260.04233232 -151.98608398 267.29858398 C-152.02890589 273.62092408 -152.07517875 279.94322773 -152.12564808 286.26551157 C-152.15226516 289.61510076 -152.17711854 292.96468264 -152.19784355 296.31431389 C-152.22180918 300.04772898 -152.25187411 303.78104692 -152.28344727 307.5144043 C-152.28920273 308.63289764 -152.29495819 309.75139099 -152.30088806 310.90377808 C-152.31067688 311.91485123 -152.3204657 312.92592438 -152.33055115 313.96763611 C-152.3370037 314.85163558 -152.34345625 315.73563505 -152.35010433 316.64642239 C-152.48876953 318.64355469 -152.48876953 318.64355469 -153.48876953 319.64355469 C-169.32876953 319.64355469 -185.16876953 319.64355469 -201.48876953 319.64355469 C-201.48876953 208.76355469 -201.48876953 97.88355469 -201.48876953 -16.35644531 C-186.63876953 -16.35644531 -171.78876953 -16.35644531 -156.48876953 -16.35644531 C-154.74150991 -14.60918569 -155.1521972 -12.12917449 -154.98876953 -9.74707031 C-154.90626953 -8.59980469 -154.82376953 -7.45253906 -154.73876953 -6.27050781 C-154.65626953 -5.06136719 -154.57376953 -3.85222656 -154.48876953 -2.60644531 C-154.32496882 -0.23645383 -154.15840397 2.13334861 -153.98876953 4.50292969 C-153.88048828 6.08799316 -153.88048828 6.08799316 -153.77001953 7.70507812 C-153.51090632 10.41227134 -153.07642757 12.99052349 -152.48876953 15.64355469 C-151.98990234 14.97710938 -151.49103516 14.31066406 -150.97705078 13.62402344 C-135.11779324 -6.73391039 -112.77336825 -19.26867165 -87.19970703 -22.88769531 C-56.41927799 -26.40089603 -24.27272893 -20.12860448 0 0 Z M-132.48876953 49.64355469 C-133.07142578 50.20429687 -133.65408203 50.76503906 -134.25439453 51.34277344 C-150.25700182 68.09275524 -153.01118391 90.79874328 -152.76220703 112.84277344 C-152.28540037 130.05266125 -145.99875012 147.70512782 -134.48876953 160.64355469 C-133.54998508 161.83003952 -132.61234478 163.01743127 -131.67626953 164.20605469 C-130.95439453 165.01042969 -130.23251953 165.81480469 -129.48876953 166.64355469 C-128.82876953 166.64355469 -128.16876953 166.64355469 -127.48876953 166.64355469 C-127.48876953 167.30355469 -127.48876953 167.96355469 -127.48876953 168.64355469 C-111.9828777 181.95392201 -91.47415427 188.00572385 -71.27099609 186.47558594 C-50.3409659 184.18856069 -32.3734363 174.62474303 -18.69580078 158.56542969 C-4.22212186 139.40381582 1.27467536 116.12298514 -1.98486328 92.38964844 C-6.01554638 70.55108862 -17.10056834 51.43330991 -35.48876953 38.64355469 C-67.11897072 18.15177447 -106.19540522 23.07132136 -132.48876953 49.64355469 Z " fill="#000000" transform="translate(1634.48876953125,1145.3564453125)"/>
<path d="M0 0 C27.72485152 23.42916278 44.35126754 55.16907527 48.52319336 91.26782227 C48.64047116 93.1618588 48.71699094 95.05849076 48.77319336 96.95532227 C48.79897461 97.70587891 48.82475586 98.45643555 48.85131836 99.22973633 C50.01957054 137.76745504 38.68281084 173.93359022 12.17211914 202.4909668 C6.05001932 208.89940566 -0.79542863 214.15545205 -8.22680664 218.95532227 C-9.21938477 219.60500977 -10.21196289 220.25469727 -11.23461914 220.92407227 C-18.16809946 225.18578594 -25.13572924 228.23191789 -32.85180664 230.83032227 C-33.69783447 231.11649414 -34.5438623 231.40266602 -35.41552734 231.69750977 C-46.86123627 235.36189835 -57.99797554 236.32112921 -69.97680664 236.26782227 C-70.63666565 236.26566711 -71.29652466 236.26351196 -71.97637939 236.2612915 C-98.59612128 236.12190425 -121.86273839 228.3030897 -141.34790039 209.92407227 C-145.10115786 206.05368464 -148.64497713 201.98488047 -152.22680664 197.95532227 C-152.55680664 238.21532227 -152.88680664 278.47532227 -153.22680664 319.95532227 C-169.06680664 319.95532227 -184.90680664 319.95532227 -201.22680664 319.95532227 C-201.22680664 209.07532227 -201.22680664 98.19532227 -201.22680664 -16.04467773 C-186.37680664 -16.04467773 -171.52680664 -16.04467773 -156.22680664 -16.04467773 C-155.19167709 -12.93928909 -154.94861686 -10.39409192 -154.72680664 -7.13452148 C-154.64430664 -5.98016602 -154.56180664 -4.82581055 -154.47680664 -3.63647461 C-154.30987398 -1.19638863 -154.14320816 1.24371563 -153.97680664 3.68383789 C-153.89430664 4.8369043 -153.81180664 5.9899707 -153.72680664 7.17797852 C-153.61852539 8.76751343 -153.61852539 8.76751343 -153.50805664 10.38916016 C-153.37862024 12.94095036 -153.37862024 12.94095036 -152.22680664 14.95532227 C-151.47657227 14.10969727 -150.72633789 13.26407227 -149.95336914 12.39282227 C-112.06800007 -29.83227967 -44.85258195 -36.41810074 0 0 Z M-128.66821289 45.46313477 C-144.70806643 61.08668676 -152.695671 82.56929574 -153.25805664 104.66625977 C-153.34640358 128.90645254 -145.1537042 150.244449 -128.36743164 167.91235352 C-114.1085122 181.40957854 -94.96189646 186.95532227 -75.70727539 186.95532227 C-72.50745446 186.7696011 -69.39665622 186.42700228 -66.22680664 185.95532227 C-65.19426758 185.80321289 -64.16172852 185.65110352 -63.09790039 185.49438477 C-42.36823516 181.57736827 -25.3420746 168.53797401 -13.51977539 151.49438477 C-1.44905313 132.60905221 1.82400574 109.31590555 -2.85180664 87.58032227 C-7.50296481 67.96327904 -18.66053133 50.50811952 -35.22680664 38.95532227 C-40.378994 35.91668481 -45.76557099 33.38253811 -51.22680664 30.95532227 C-52.01571289 30.59438477 -52.80461914 30.23344727 -53.61743164 29.86157227 C-78.75245548 19.96589359 -108.95257726 28.46591043 -128.66821289 45.46313477 Z " fill="#000000" transform="translate(1927.226806640625,1145.044677734375)"/>
<path d="M0 0 C1.22686523 0.00563965 2.45373047 0.0112793 3.71777344 0.01708984 C29.89919995 0.36677565 54.41282951 9.73493891 73.1875 28.3125 C77.6425 33.7575 77.6425 33.7575 82.1875 39.3125 C83.1775 28.7525 84.1675 18.1925 85.1875 7.3125 C100.6975 7.3125 116.2075 7.3125 132.1875 7.3125 C132.1875 88.1625 132.1875 169.0125 132.1875 252.3125 C116.6775 252.3125 101.1675 252.3125 85.1875 252.3125 C84.1975 241.7525 83.2075 231.1925 82.1875 220.3125 C79.8775 222.9525 77.5675 225.5925 75.1875 228.3125 C57.99638192 246.88956869 34.99712405 258.26681636 9.50878906 259.43530273 C-24.20603952 260.3568862 -53.69013411 252.68096041 -78.8125 229.3125 C-79.69550781 228.51070312 -80.57851563 227.70890625 -81.48828125 226.8828125 C-108.01568797 201.71684345 -118.93679022 165.14879184 -119.88818359 129.47460938 C-120.17088324 93.06289531 -106.68983496 59.73897303 -81.8125 33.3125 C-81.00425781 32.40757813 -81.00425781 32.40757813 -80.1796875 31.484375 C-68.29501279 18.70387054 -51.91435184 10.52936705 -35.625 4.9375 C-34.93760742 4.69870117 -34.25021484 4.45990234 -33.54199219 4.21386719 C-22.61718225 0.67801535 -11.4135287 -0.05531342 0 0 Z M-48.12158203 72.79394531 C-62.86826526 90.02133139 -71.13406192 110.39605385 -69.8125 133.3125 C-68.01317423 156.19688268 -59.42480217 176.94630115 -41.8125 192.3125 C-23.50817092 206.82202915 -3.66814752 210.78599573 19.1875 209.3125 C37.16322448 207.05437964 53.66226376 196.68364746 65.21484375 182.99609375 C79.64750284 163.36196149 84.83903516 140.02516394 81.69140625 115.90625 C78.34379466 94.78357599 67.95547704 75.65644987 50.6875 62.8125 C41.93742884 56.89451294 31.74165013 51.69265809 21.1875 50.3125 C20.4759375 50.20421875 19.764375 50.0959375 19.03125 49.984375 C-5.00070341 46.76883194 -31.70204911 54.21249701 -48.12158203 72.79394531 Z " fill="#000000" transform="translate(342.8125,1121.6875)"/>
<path d="M0 0 C11.88 0 23.76 0 36 0 C37.23975586 3.11453613 38.47951172 6.22907227 39.75683594 9.43798828 C43.90358391 19.85541285 48.05060788 30.27272753 52.19776535 40.68998909 C54.70635824 46.99135249 57.21486269 53.29275106 59.72314453 59.59423828 C73.03924445 93.05786576 73.03924445 93.05786576 86.40274048 126.50257874 C91.26642884 138.65283137 96.10529666 150.81295883 100.9453125 162.97265625 C101.39504425 164.10250191 101.844776 165.23234756 102.30813599 166.39643097 C106.51586003 176.96760424 110.7229034 187.53904836 114.9296875 198.1105957 C116.78584116 202.77504089 118.6422946 207.43936662 120.4989624 212.10360718 C122.32788461 216.69815177 124.15576397 221.29310932 125.98297119 225.88833618 C130.41078636 237.01911224 134.85746562 248.14176871 139.34277344 259.24951172 C140.59754961 262.36297622 141.85197528 265.47658177 143.10634995 268.59020805 C144.27487266 271.48473982 145.44994559 274.37655262 146.62527466 277.26832581 C147.32846596 279.01265765 148.03135486 280.75711144 148.73388672 282.50170898 C149.05293346 283.28046576 149.37198021 284.05922253 149.70069504 284.86157799 C149.99128422 285.58699099 150.2818734 286.31240398 150.58126831 287.05979919 C150.95862027 287.99038981 150.95862027 287.99038981 151.3435955 288.93978024 C152.17626225 291.55322439 152.5490723 294.2944338 153 297 C61.59 297 -29.82 297 -124 297 C-122.87504268 290.25025606 -122.87504268 290.25025606 -121.44384766 286.90209961 C-121.12408966 286.14505234 -120.80433167 285.38800507 -120.47488403 284.60801697 C-120.12481293 283.79764481 -119.77474182 282.98727264 -119.4140625 282.15234375 C-119.04570282 281.28505142 -118.67734314 280.41775909 -118.29782104 279.52418518 C-117.07952197 276.65937048 -115.85219563 273.7985136 -114.625 270.9375 C-113.76298078 268.91435682 -112.90166427 266.8909141 -112.04101562 264.8671875 C-110.25174847 260.66142985 -108.45945804 256.45698 -106.66503906 252.25341797 C-102.97530673 243.60369841 -99.32233566 234.93851889 -95.66937256 226.27322388 C-93.69802089 221.59806756 -91.72385763 216.92409871 -89.75 212.25 C-88.9583201 210.37500559 -88.16665343 208.50000559 -87.375 206.625 C-79.45833333 187.875 -71.54166667 169.125 -63.625 150.375 C-63.03727058 148.98300888 -63.03727058 148.98300888 -62.43766785 147.56289673 C-61.64544246 145.68657398 -60.8532163 143.81025155 -60.06098938 141.93392944 C-58.09036488 137.2666702 -56.11975342 132.59940546 -54.14916992 127.93212891 C-50.48506513 119.25382846 -46.82083736 110.57558 -43.15615845 101.89752197 C-41.45122381 97.86016914 -39.74636138 93.82278581 -38.04150391 89.78540039 C-37.23961913 87.88645949 -36.43770014 85.98753304 -35.63574219 84.08862305 C-31.44936228 74.17591178 -27.26664662 64.26168042 -23.09210205 54.34397888 C-19.17733392 45.04415587 -15.25676493 35.74678228 -11.33374023 26.45043945 C-10.47345163 24.41148772 -9.61343327 22.37242194 -8.75366211 20.33325195 C-7.49395186 17.34560175 -6.23339882 14.35830845 -4.97265625 11.37109375 C-4.58731216 10.45670029 -4.20196808 9.54230682 -3.8049469 8.60020447 C-3.27320107 7.34101952 -3.27320107 7.34101952 -2.73071289 6.05639648 C-2.41953018 5.31872543 -2.10834747 4.58105438 -1.78773499 3.82102966 C-1.22944673 2.53041861 -0.62886607 1.25773214 0 0 Z M17 50 C16.53851562 51.12865479 16.07703125 52.25730957 15.6015625 53.42016602 C7.41101806 73.45087299 -0.78234439 93.48039773 -9 113.5 C-14.67660991 127.32927491 -20.34178807 141.16318761 -26 155 C-31.33409056 168.04419334 -36.67335243 181.08622907 -42.02462769 194.12338257 C-42.9927248 196.48227306 -43.96042537 198.84132579 -44.92797852 201.20043945 C-45.57828381 202.78597167 -46.22859309 204.37150226 -46.87890625 205.95703125 C-47.20403702 206.7497493 -47.52916779 207.54246735 -47.864151 208.35920715 C-50.13719994 213.90003722 -52.41400317 219.43931567 -54.69198608 224.9781189 C-56.36753953 229.05373624 -58.04080185 233.13029182 -59.71362305 237.20703125 C-60.52416017 239.1809066 -61.33567063 241.15438258 -62.14819336 243.12744141 C-63.2770942 245.86909116 -64.40259811 248.61211225 -65.52734375 251.35546875 C-65.86507309 252.17335373 -66.20280243 252.99123871 -66.55076599 253.83390808 C-67.01471519 254.96836113 -67.01471519 254.96836113 -67.48803711 256.12573242 C-67.75732529 256.78087326 -68.02661346 257.4360141 -68.30406189 258.11100769 C-69.15618611 260.31931435 -69.15618611 260.31931435 -70 264 C-13.9 264 42.2 264 100 264 C94.21590622 248.38294681 88.43755568 232.78326623 82.41748047 217.25854492 C81.98352966 216.13870209 81.54957886 215.01885925 81.10247803 213.86508179 C80.65616028 212.7133548 80.20984253 211.56162781 79.75 210.375 C78.79422765 207.90413209 77.83862804 205.43319816 76.88330078 202.9621582 C75.15496414 198.49216659 73.42603665 194.0224045 71.69624519 189.55297565 C66.74795177 176.76752615 61.8112562 163.97760089 56.875 151.1875 C56.4237677 150.01850159 55.9725354 148.84950317 55.50762939 147.64508057 C48.70343232 130.01722805 41.90937584 112.38549048 35.125 94.75 C34.71779724 93.69179047 34.31059448 92.63358093 33.89105225 91.54330444 C28.56686863 77.705833 23.26855108 63.85875195 18 50 C17.67 50 17.34 50 17 50 Z " fill="#000000" transform="translate(1242,1077)"/>
<path d="M0 0 C17.82 0 35.64 0 54 0 C60.46680429 15.62811036 66.69532633 31.31071374 72.6875 47.125 C78.62771242 62.79957355 84.65250406 78.43746198 90.76367188 94.04614258 C91.42843564 95.74428373 92.09314855 97.44244478 92.7578125 99.140625 C93.09230408 99.99516769 93.42679565 100.84971039 93.77142334 101.73014832 C96.54789328 108.82978388 99.30371617 115.93732509 102.0546875 123.046875 C102.69602882 124.70383644 102.69602882 124.70383644 103.35032654 126.39427185 C105.04082059 130.76241547 106.7311209 135.13063055 108.41836548 139.50003052 C109.5835749 142.51746156 110.75064317 145.53416836 111.91796875 148.55078125 C112.25694183 149.43042542 112.59591492 150.31006958 112.94515991 151.21636963 C115.51793927 157.85854896 118.23677332 164.43494614 121 171 C124.05679815 163.96510267 127.112478 156.92972028 130.16748047 149.89404297 C131.20076853 147.51470671 132.23428686 145.13547042 133.26806641 142.75634766 C142.39410304 121.75310823 151.42261055 100.70907019 160.42355347 79.65197754 C171.80209503 53.03429674 183.24301674 26.45321233 195 0 C212.16 0 229.32 0 247 0 C246.15872886 5.04762682 245.20203178 8.23900586 243.1484375 12.79296875 C242.85828766 13.44258575 242.56813782 14.09220276 242.26919556 14.76150513 C241.64073579 16.16707897 241.00922906 17.57129363 240.375 18.97427368 C238.63861849 22.81727893 236.92654382 26.67112463 235.2109375 30.5234375 C234.85602234 31.3187941 234.50110718 32.1141507 234.13543701 32.93360901 C230.67789341 40.69316243 227.32963902 48.49741277 224 56.3125 C217.6248098 71.25636371 211.1639619 86.16227594 204.6875 101.0625 C197.75059423 117.02428637 190.84017537 132.99651567 184 149 C176.27005065 167.08333674 168.44937247 185.12660646 160.61303711 203.1640625 C154.41302069 217.43561582 148.22756697 231.71331368 142.0625 246 C141.67496552 246.89799316 141.28743103 247.79598633 140.88815308 248.72119141 C139.36141421 252.25901388 137.83473657 255.79686276 136.30821228 259.33477783 C130.19501982 273.5020157 124.0687933 287.66362201 117.94122314 301.824646 C116.98264923 304.04010109 116.02426701 306.25563903 115.06591797 308.47119141 C113.52074024 312.04323957 111.97494209 315.61501861 110.4286499 319.18658447 C109.85688823 320.50742605 109.28531056 321.82834731 108.71392822 323.14935303 C107.93612377 324.94745698 107.15753681 326.74522238 106.37890625 328.54296875 C105.9413501 329.55383545 105.50379395 330.56470215 105.05297852 331.60620117 C104.40206814 333.08595453 103.72295979 334.55408041 103 336 C85.84 336 68.68 336 51 336 C51.7115255 332.4423725 52.29445149 329.98170703 53.67626953 326.77539062 C54.0231633 325.96380997 54.37005707 325.15222931 54.72746277 324.3160553 C55.29936089 322.99945168 55.29936089 322.99945168 55.8828125 321.65625 C56.48764214 320.25112404 56.48764214 320.25112404 57.10469055 318.81761169 C57.9820381 316.78053143 58.86127055 314.74426218 59.74215698 312.70870972 C61.14091725 309.46306607 62.52149626 306.21017317 63.89868164 302.95532227 C68.42583361 292.30344699 73.05750982 281.74189676 78.14117432 271.3420105 C80.4086152 266.68967827 82.61241967 262.00839362 84.81317139 257.32421875 C85.88458191 255.09033203 86.98687804 252.87096305 88.12139893 250.66845703 C95.18384276 237.31859186 95.18384276 237.31859186 94.62182617 222.74267578 C92.64747569 217.5114233 90.14735196 212.61335366 87.45663452 207.71829224 C85.37922097 203.84153589 83.75339512 199.82868392 82.12109375 195.75 C81.51623231 194.30401233 80.90840153 192.85926317 80.29760742 191.41577148 C79.99535248 190.69815643 79.69309753 189.98054138 79.38168335 189.24118042 C79.07010284 188.50159088 78.75852234 187.76200134 78.4375 187 C78.10473053 186.20973419 77.77196106 185.41946838 77.42910767 184.60525513 C71.85790398 171.3767286 66.25181057 158.16321442 60.63131714 144.95556641 C54.8971972 131.48032695 49.19168383 117.99321474 43.5 104.5 C37.82352856 91.04412791 32.13716068 77.59259214 26.42306519 64.15264893 C25.385317 61.71176657 24.34803692 59.27068567 23.31079102 56.82958984 C20.01065657 49.06533725 16.70401708 41.30393313 13.38525391 33.54762268 C11.78609616 29.80911741 10.18957398 26.06948948 8.59332275 22.32974243 C7.82736418 20.5373217 7.06008654 18.74546404 6.29144287 16.95419312 C5.23145273 14.48383964 4.17580633 12.01167282 3.12109375 9.5390625 C2.80326431 8.80155258 2.48543488 8.06404266 2.15797424 7.30418396 C0 2.22772545 0 2.22772545 0 0 Z " fill="#000000" transform="translate(735,1129)"/>
<path d="M0 0 C61.71 0 123.42 0 187 0 C185.49435603 3.76410993 183.96798631 7.03540064 182.015625 10.55078125 C181.41741943 11.62924316 180.81921387 12.70770508 180.20288086 13.81884766 C179.55215348 14.9835286 178.90118697 16.14807596 178.25 17.3125 C177.91775421 17.90891296 177.58550842 18.50532593 177.24319458 19.11981201 C172.01251873 28.50807643 166.64806942 37.81212493 161.20214844 47.07739258 C157.04262569 54.1683384 152.99736959 61.3165392 149 68.5 C143.90175263 77.65726664 138.68691858 86.73693317 133.38623047 95.77832031 C128.91721265 103.4079881 124.50638369 111.06977486 120.125 118.75 C119.79163635 119.33431793 119.45827271 119.91863586 119.11480713 120.5206604 C117.4199651 123.4919198 115.72592016 126.46363272 114.03222656 129.43554688 C111.02419601 134.71285675 108.00920656 139.98618959 104.99468994 145.25979614 C103.34513088 148.14568944 101.69603056 151.03184485 100.046875 153.91796875 C99.38216366 155.08121871 98.7174501 156.24446739 98.05273438 157.40771484 C97.71814209 157.99325134 97.3835498 158.57878784 97.03881836 159.18206787 C90.02587891 171.45471191 83.01293945 183.72735596 76 196 C113.29 196 150.58 196 189 196 C189 212.17 189 228.34 189 245 C124.65 245 60.3 245 -6 245 C-4.57788545 240.73365634 -3.51358575 237.85545362 -1.3046875 234.1484375 C-0.76215332 233.2296582 -0.21961914 232.31087891 0.33935547 231.36425781 C0.92861816 230.37780273 1.51788086 229.39134766 2.125 228.375 C3.40220864 226.21162603 4.67820254 224.04753455 5.953125 221.8828125 C6.61892578 220.75391602 7.28472656 219.62501953 7.97070312 218.46191406 C11.32480176 212.75495828 14.5978401 207.00135234 17.875 201.25 C18.54829745 200.06947452 19.22163755 198.88897336 19.89501953 197.70849609 C21.25304267 195.32739813 22.61054995 192.94600696 23.96777344 190.56445312 C26.97470744 185.28906705 29.98859617 180.01765562 33.00201416 174.74597168 C34.6682993 171.83081342 36.33412627 168.91539337 38 166 C38.66666448 164.83333208 39.33333114 163.66666541 40 162.5 C40.33 161.9225 40.66 161.345 41 160.75 C59.99999999 127.50000001 59.99999999 127.50000001 60.99998474 125.75003052 C61.66670665 124.58326463 62.33342418 123.41649624 63.00013733 122.24972534 C64.66592284 119.33455622 66.33178427 116.41943053 67.99780273 113.50439453 C71.0077971 108.23762847 74.01726053 102.97056298 77.02383423 97.70184326 C78.0423931 95.91700625 79.06120213 94.13231224 80.08007812 92.34765625 C81.32274508 90.17084655 82.56499771 87.99380022 83.80664062 85.81640625 C90.82813407 73.51922144 97.92339394 61.26611717 105 49 C70.35 49 35.7 49 0 49 C0 32.83 0 16.66 0 0 Z " fill="#000000" transform="translate(524,1129)"/>
<path d="M0 0 C61.71 0 123.42 0 187 0 C185.54877547 3.62806134 184.12455815 6.74228784 182.234375 10.11328125 C181.68136719 11.10134766 181.12835937 12.08941406 180.55859375 13.10742188 C179.66333984 14.69393555 179.66333984 14.69393555 178.75 16.3125 C178.12738281 17.42044922 177.50476562 18.52839844 176.86328125 19.66992188 C172.07886134 28.15576926 167.18494065 36.57500817 162.25292969 44.97583008 C158.07918633 52.10200276 154.01593691 59.28386337 150 66.5 C144.86368611 75.72931402 139.59787465 84.87236973 134.25 93.98046875 C130.07756041 101.1052819 126.01504756 108.28546141 122 115.5 C117.42427998 123.72199691 112.76426193 131.88579367 108 140 C102.6246281 149.15567126 97.38094896 158.37694124 92.23242188 167.66210938 C86.94128414 177.18355404 81.461752 186.56606473 76 196 C113.29 196 150.58 196 189 196 C189 212.17 189 228.34 189 245 C124.65 245 60.3 245 -6 245 C-4.56386092 240.69158276 -3.47293907 237.78934128 -1.234375 234.04296875 C-0.68136719 233.10839844 -0.12835937 232.17382812 0.44140625 231.2109375 C1.33666016 229.71433594 1.33666016 229.71433594 2.25 228.1875 C7.27736565 219.68365376 12.20273473 211.13575698 17 202.5 C22.13552839 193.27025844 27.40213603 184.12761208 32.75 175.01953125 C36.92244156 167.89471475 40.98481022 160.71446163 45 153.5 C50.09830924 144.34276685 55.31308055 135.2630683 60.61376953 126.22167969 C65.08278824 118.59201037 69.4935006 110.93016019 73.875 103.25 C74.20537262 102.67099945 74.53574524 102.0919989 74.87612915 101.49545288 C76.56089213 98.54230735 78.24481253 95.58868252 79.92822266 92.63476562 C83.12629361 87.023289 86.32830009 81.4140606 89.53155518 75.80554199 C90.5246465 74.0662946 91.51697703 72.32661288 92.50927734 70.58691406 C93.12625488 69.50635742 93.74323242 68.42580078 94.37890625 67.3125 C94.9107251 66.38050781 95.44254395 65.44851563 95.99047852 64.48828125 C98.97188827 59.31292193 101.9905294 54.15909245 105 49 C70.35 49 35.7 49 0 49 C0 32.83 0 16.66 0 0 Z " fill="#000000" transform="translate(2010,1129)"/>
<path d="M0 0 C17.16 0 34.32 0 52 0 C52 91.08 52 182.16 52 276 C100.18 276 148.36 276 198 276 C198 293.16 198 310.32 198 328 C132.66 328 67.32 328 0 328 C0 219.76 0 111.52 0 0 Z " fill="#000000" transform="translate(3,1046)"/>
<path d="M0 0 C0.99 0 1.98 0 3 0 C4.27330017 1.38778687 4.27330017 1.38778687 5.55834961 3.37255859 C6.29488266 4.49287979 6.29488266 4.49287979 7.04629517 5.63583374 C7.84128922 6.8795726 7.84128922 6.8795726 8.65234375 8.1484375 C9.21617767 9.01167633 9.7800116 9.87491516 10.3609314 10.76431274 C12.22917455 13.62854983 14.08303999 16.50182385 15.9375 19.375 C17.89208721 22.37772876 19.85044078 25.37797996 21.80882263 28.37823486 C23.16044424 30.44965842 24.51081819 32.52189657 25.86000061 34.59490967 C32.92881856 45.45147143 40.11362432 56.22942442 47.3125 67 C48.47855544 68.74650112 49.64449276 70.49308111 50.81030273 72.23974609 C52.93361428 75.42066906 55.05752624 78.60118927 57.18212891 81.78125 C60.79203578 87.18486807 64.39668173 92.59198666 68 98 C70.41383361 95.03295579 72.71006792 92.05705703 74.8203125 88.8671875 C75.3464917 88.07473633 75.8726709 87.28228516 76.41479492 86.46582031 C76.9791626 85.61084961 77.54353027 84.75587891 78.125 83.875 C79.37353218 81.99207759 80.62223894 80.10927094 81.87109375 78.2265625 C82.86858643 76.72077637 82.86858643 76.72077637 83.88623047 75.18457031 C86.09588533 71.85554074 88.31402298 68.53231255 90.53515625 65.2109375 C100.10448877 50.91269319 100.10448877 50.91269319 109.5 36.5 C110.7901229 34.50149358 112.082142 32.50423452 113.37548828 30.5078125 C114.633268 28.56613633 115.88906432 26.62317528 117.14404297 24.6796875 C119.15490461 21.56995118 121.17983552 18.46968709 123.21191406 15.3737793 C124.02420609 14.13187864 124.83237024 12.88726754 125.63623047 11.63989258 C126.76620115 9.88799092 127.91054251 8.1463389 129.05859375 6.40625 C129.72173584 5.38853516 130.38487793 4.37082031 131.06811523 3.32226562 C133 1 133 1 137 0 C137 46.86 137 93.72 137 142 C129.41 142 121.82 142 114 142 C113.67 117.91 113.34 93.82 113 69 C109.04 75.6 105.08 82.2 101 89 C98.57596924 92.92668864 96.14633208 96.84559277 93.6875 100.75 C92.42700901 102.75906795 91.16659486 104.76818412 89.90625 106.77734375 C89.27074219 107.78909668 88.63523437 108.80084961 87.98046875 109.84326172 C85.90962721 113.14404835 83.84436949 116.44829067 81.78125 119.75390625 C80.75318237 121.40084473 80.75318237 121.40084473 79.7043457 123.08105469 C78.38503015 125.19489813 77.06585141 127.30882696 75.74682617 129.42285156 C75.15361572 130.37256836 74.56040527 131.32228516 73.94921875 132.30078125 C73.42674561 133.13778564 72.90427246 133.97479004 72.3659668 134.8371582 C71.26895902 136.57413621 70.13957059 138.29064412 69 140 C68.34 140 67.68 140 67 140 C65.90942383 138.54492188 65.90942383 138.54492188 64.70703125 136.46875 C64.2495752 135.69039795 63.79211914 134.9120459 63.32080078 134.11010742 C62.82306152 133.24877197 62.32532227 132.38743652 61.8125 131.5 C60.7247291 129.65112264 59.63479113 127.80351897 58.54296875 125.95703125 C57.96595215 124.98072754 57.38893555 124.00442383 56.79443359 122.99853516 C53.81212717 118.01504026 50.71793021 113.1028273 47.625 108.1875 C39.26891444 94.88150053 31.08382161 81.47303601 23 68 C22.67 92.42 22.34 116.84 22 142 C14.74 142 7.48 142 0 142 C0 95.14 0 48.28 0 0 Z " fill="#000000" transform="translate(2336,1043)"/>
<path d="M0 0 C32.34 0 64.68 0 98 0 C98 6.93 98 13.86 98 21 C97.505 21.495 97.505 21.495 97 22 C84.79 22 72.58 22 60 22 C60 60.61 60 99.22 60 139 C52.41 139 44.82 139 37 139 C37 100.39 37 61.78 37 22 C24.79 22 12.58 22 0 22 C0 14.74 0 7.48 0 0 Z " fill="#000000" transform="translate(2223,1046)"/>
</svg>